<svg width="800" height="67" fill="none" xmlns="http://www.w3.org/2000/svg" preserveAspectRatio="none">
  <path fill-rule="evenodd" clip-rule="evenodd" d="M0 5.9516v43.5675s88.586 15.4108 146.898 17.2152c46.783 1.4476 80.947-3.261 117.329-8.2753 25.314-3.4889 51.701-7.1257 84.16-8.9399 98.491-5.505 154.276-7.1493 253.102-4.9187C679.274 46.3561 800 55.6674 800 55.6674V7.18485S696.766 1.33517 624.272.504736c-3.402-.038975-6.664-.077094-9.806-.113809-47.097-.550443-67.199-.785374-130 1.141523-45.555 1.39774-68.213 3.19152-90.567 4.96121-10.518.83269-20.968 1.66004-33.705 2.4383-39.806 2.43224-69.573 3.52494-117.476 3.80254-32.608.189-53.681-.3651-81.251-1.0901-6.744-.1773-13.876-.3649-21.661-.5543C83.4791 9.71985 0 5.9516 0 5.9516Z" fill="#81B29A"/>
</svg>
