<?xml version="1.0" encoding="utf-8"?>
<!-- Generator: $$$/GeneralStr/196=Adobe Illustrator 27.6.0, SVG Export Plug-In . SVG Version: 6.00 Build 0)  -->
<svg version="1.1" id="bf42b20b-d27a-442b-ac92-e61487fa75c5"
	 xmlns="http://www.w3.org/2000/svg" xmlns:xlink="http://www.w3.org/1999/xlink" x="0px" y="0px" viewBox="0 0 142.1 52.3"
	 style="enable-background:new 0 0 142.1 52.3;" xml:space="preserve">
<style type="text/css">
	.st0{fill:#FFFFFF;}
	.st1{fill:#935B9E;}
	.st2{fill:#8FBE54;}
	.st3{fill:#36B6D4;}
	.st4{fill:#FACF53;}
	.st5{fill:#D94759;}
	.st6{fill:#4B4B99;}
	.st7{fill:#E4803E;}
</style>
<g>
	<path class="st0" d="M74.2,33H59.4c0.4,3,2.8,5.5,6.9,5.5c1.6,0,3.2-0.5,4.7-1.2c1.3-0.7,2.9-0.2,3.6,1.1c0.2,0.3,0.3,0.7,0.3,1.1
		c0,2.8-6.1,4-9.3,4c-7.3,0-12.8-4.9-12.8-12.6c-0.2-6.7,5.1-12.3,11.8-12.5c0,0,0,0,0,0h0.6c5.1-0.1,9.7,3.2,11.2,8.1
		c0.4,1.2,0.6,2.4,0.7,3.6C77.1,31.7,75.8,33,74.2,33z M65.2,23.5c-3.1-0.1-5.7,2.2-5.9,5.3h11.8c-0.1-3.1-2.7-5.4-5.8-5.3
		c0,0,0,0,0,0L65.2,23.5z"/>
	<path class="st0" d="M95.3,43.5c-2.9,0-5.6-1.3-7.4-3.7v9.4c0,1.7-1.4,3.1-3.1,3.1c-1.7,0-3.1-1.4-3.1-3.1V21.8
		c0-1.7,1.4-3.1,3.2-3.1l0,0c1.7,0,3.1,1.4,3.1,3.1V22c1.8-2.3,4.5-3.6,7.4-3.6c6.1,0,10.6,4.5,10.6,12.5S101.4,43.5,95.3,43.5z
		 M93.3,24c-2.1,0-4.1,1-5.4,2.7v8.5c1.3,1.7,3.3,2.7,5.4,2.7c3.6,0,6-2.8,6-7S96.9,24,93.3,24L93.3,24z"/>
	<path class="st0" d="M119.2,43.5c-3.1,0-8.1-1-9.6-3.2c-0.3-0.4-0.5-0.9-0.4-1.3c0-1.4,1.2-2.6,2.6-2.6c0.5,0,0.9,0.1,1.3,0.3
		c2,1.2,4.2,1.8,6.4,1.9c2.7,0,4-1.1,4-2.6c0-4-14.2-0.8-14.2-10.1c0-4,3.5-7.5,9.8-7.5c3.1,0,7.4,1,8.7,2.9
		c0.3,0.4,0.4,0.8,0.4,1.2c-0.1,1.4-1.2,2.4-2.6,2.4c-0.4,0-0.7-0.1-1.1-0.3c-1.6-0.9-3.5-1.4-5.4-1.4c-2.3,0-3.8,1-3.8,2.4
		c0,3.6,14.2,0.6,14.2,10.2C129.6,40.2,125.9,43.5,119.2,43.5z"/>
	<path class="st0" d="M141,12.7c0.1,2.1-1.6,3.8-3.7,3.9c-2.1,0.1-3.8-1.6-3.9-3.7s1.6-3.8,3.7-3.9c0,0,0,0,0,0l0,0
		C139.2,8.9,140.9,10.6,141,12.7C141,12.6,141,12.6,141,12.7L141,12.7z M137.2,43.2c-1.7,0-3.1-1.4-3.1-3.1c0,0,0,0,0,0V21.8
		c0-1.7,1.4-3.1,3.2-3.1h0.1c1.7,0,3.1,1.4,3.1,3.1v18.3C140.4,41.8,139,43.2,137.2,43.2L137.2,43.2z"/>
</g>
<g>
	<rect x="28" y="36.6" class="st1" width="7" height="7"/>
	<rect x="7" y="29.6" class="st2" width="7" height="7"/>
	<path class="st3" d="M28,22.6v7h-7v7h-7v7h14v-7h7v-14H28z"/>
	<path class="st4" d="M21,22.6h-7v14h7v-7h7v-7H21z"/>
	<path class="st5" d="M28.8,0v7h7v7h7V0H28.8z"/>
	<path class="st6" d="M14,15.6v-7H0v35h14v-7H7v-7h7v-7H7v-7L14,15.6z"/>
	<path class="st7" d="M21,15.6v-7h-7v7H7v7h21v-7L21,15.6z"/>
</g>
</svg>
