<svg viewBox="0 0 800 68" fill="none" xmlns="http://www.w3.org/2000/svg">
  <path fill-rule="evenodd" clip-rule="evenodd" d="M0 11.654v48.0138s83.4791-5.2756 139.806-7.194c7.785-.2652 14.917-.5277 21.661-.776 27.57-1.0149 48.643-1.7907 81.251-1.5261 47.903.3887 77.67 1.9184 117.476 5.3236 12.737 1.0895 23.188 2.2478 33.705 3.4136 22.354 2.4775 45.012 4.9888 90.567 6.9457 62.801 2.6976 82.903 2.3687 130.001 1.5981 3.141-.0514 6.403-.1048 9.805-.1593C696.766 66.1308 800 57.9412 800 57.9412V7.55509S679.274 13.7626 601.489 14.933c-98.826 1.4871-154.611.3909-253.102-3.279-32.459-1.2095-58.846-3.63408-84.16-5.95999C227.845 2.35113 193.681-.787956 146.898.17713 88.586 1.38007 0 11.654 0 11.654Z" fill="#F2CC8F"/>
</svg>
