<svg width="200" height="200" viewBox="0 0 200 200" fill="none" xmlns="http://www.w3.org/2000/svg">
<circle cx="100" cy="100" r="100" fill="#81B29A"/>
<path d="M35.4294 145.2C32.8353 144.973 30.5897 144.32 28.6925 143.241C26.7953 142.162 25.3816 140.773 24.4516 139.074C23.5251 137.333 23.1555 135.392 23.3428 133.251C23.5013 131.439 24.016 129.824 24.8869 128.407C25.7989 126.993 26.931 125.91 28.2831 125.157C29.6764 124.407 31.1554 124.101 32.7201 124.238C34.1612 124.364 35.3435 124.841 36.2669 125.668C37.1939 126.455 37.725 127.497 37.8604 128.795C35.7193 128.608 33.96 129.035 32.5827 130.076C31.209 131.076 30.4375 132.544 30.2681 134.479C30.1132 136.25 30.5242 137.717 31.5012 138.881C32.4781 140.046 33.8518 140.705 35.6224 140.86C37.8047 141.051 39.6589 140.487 41.185 139.168C42.7558 137.812 43.6385 136.022 43.8331 133.799C44.0024 131.863 43.6274 129.984 42.7081 128.161C41.7888 126.338 40.3667 124.098 38.4417 121.44C36.4415 118.692 34.9442 116.362 33.9498 114.45C33.0002 112.5 32.6208 110.433 32.8118 108.251C32.9991 106.11 33.7636 104.247 35.1054 102.664C36.4509 101.039 38.2168 99.824 40.4032 99.0195C42.5897 98.215 45.0005 97.928 47.6358 98.1586C50.971 98.4504 53.5584 99.4651 55.398 101.203C57.2787 102.944 58.1038 105.132 57.8733 107.767C57.722 109.497 57.1671 110.859 56.2088 111.854C55.2504 112.849 54.0712 113.285 52.6713 113.163C51.1066 113.026 49.9065 112.278 49.0712 110.918C49.9039 110.41 50.5882 109.702 51.124 108.795C51.6598 107.888 51.9727 106.919 52.0628 105.89C52.1781 104.572 51.8788 103.488 51.1649 102.637C50.451 101.786 49.4146 101.302 48.0558 101.183C46.4088 101.039 44.9977 101.517 43.8227 102.617C42.6924 103.68 42.048 105.117 41.8895 106.929C41.7454 108.576 42.0838 110.162 42.9048 111.686C43.7294 113.169 45.0532 115.11 46.8763 117.51C48.3684 119.425 49.5528 121.063 50.4293 122.426C51.347 123.793 52.0821 125.351 52.6344 127.1C53.2314 128.812 53.4453 130.636 53.276 132.571C53.0454 135.206 52.0953 137.53 50.4257 139.541C48.7972 141.556 46.6524 143.07 43.9914 144.082C41.3716 145.097 38.5176 145.47 35.4294 145.2ZM64.6152 146.882C61.5682 146.615 59.2279 145.622 57.5942 143.903C55.9605 142.183 55.2914 139.635 55.5868 136.259C55.8317 133.459 56.6802 130.4 58.1321 127.083C59.584 123.767 61.6945 120.985 64.4636 118.738C67.2363 116.449 70.5579 115.474 74.4284 115.813C79.699 116.274 82.046 119.799 81.4696 126.387L81.4642 126.449C81.5842 126.501 81.8088 126.541 82.1382 126.57C83.497 126.689 85.0924 126.476 86.9242 125.93C88.7596 125.344 90.4429 124.599 91.9741 123.696L92.3841 125.412C91.0783 126.584 89.4182 127.539 87.4036 128.275C85.4339 128.974 83.3005 129.41 81.0034 129.582C80.3461 133.301 79.2156 136.5 77.6119 139.181C76.0081 141.862 74.069 143.871 71.7945 145.207C69.5201 146.543 67.127 147.102 64.6152 146.882ZM67.5721 141.539C68.5604 141.626 69.5972 141.156 70.6827 140.131C71.7718 139.064 72.7716 137.596 73.6821 135.726C74.5962 133.814 75.3224 131.679 75.8607 129.319C74.7706 128.975 74.2904 128.061 74.4201 126.579C74.5678 124.891 75.3032 123.835 76.6265 123.411C76.6631 122.045 76.5382 121.101 76.2521 120.578C75.9695 120.014 75.4164 119.696 74.5929 119.624C73.2341 119.505 71.83 120.378 70.3806 122.243C68.9313 124.107 67.6947 126.385 66.671 129.075C65.6473 131.766 65.0436 134.161 64.8599 136.261C64.6869 138.237 64.7963 139.595 65.188 140.335C65.5833 141.033 66.378 141.435 67.5721 141.539ZM88.8439 149.126C86.8675 148.953 85.3157 148.195 84.1885 146.852C83.1024 145.512 82.6675 143.607 82.8836 141.136C82.9737 140.107 83.2555 138.783 83.729 137.165L89.6635 117.706L98.5575 118.484L92.2733 139.095C92.0957 139.702 91.9835 140.273 91.9367 140.808C91.789 142.496 92.3328 143.394 93.5681 143.502C94.721 143.603 95.7506 143.216 96.657 142.341C97.567 141.425 98.3429 140.144 98.9847 138.499L104.919 119.041L113.813 119.819L107.529 140.429C107.31 141.033 107.17 141.684 107.109 142.384C107.037 143.208 107.17 143.821 107.508 144.224C107.891 144.59 108.536 144.812 109.441 144.891C110.594 144.992 111.626 144.584 112.536 143.668C113.487 142.756 114.282 141.497 114.92 139.894L117.514 140.121C115.601 144.434 113.442 147.295 111.037 148.703C108.677 150.073 106.364 150.659 104.1 150.461C102.329 150.306 100.952 149.687 99.9676 148.606C99.0247 147.527 98.5349 146.011 98.4984 144.058C96.9003 146.2 95.2828 147.615 93.6461 148.301C92.0505 148.992 90.4498 149.267 88.8439 149.126ZM136.21 153.27C133.698 153.05 131.903 152.229 130.824 150.807C129.79 149.348 129.359 147.629 129.532 145.653C129.608 144.788 129.795 143.83 130.095 142.777C130.398 141.683 130.698 140.631 130.994 139.619C131.331 138.612 131.553 137.967 131.661 137.686C132.116 136.274 132.549 134.88 132.96 133.506C133.371 132.131 133.614 131.011 133.69 130.146C133.873 128.046 133.224 126.932 131.742 126.802C130.671 126.708 129.677 127.161 128.76 128.159C127.846 129.117 127.069 130.418 126.427 132.063L120.492 151.521L111.598 150.743L120.847 120.434L129.741 121.212L128.781 124.365C131.041 122.239 133.551 121.297 136.31 121.538C138.41 121.722 140.027 122.444 141.161 123.705C142.296 124.966 142.76 126.77 142.555 129.117C142.45 130.311 142.189 131.637 141.771 133.094C141.357 134.51 140.79 136.244 140.071 138.298C139.63 139.545 139.212 140.774 138.815 141.984C138.464 143.157 138.257 144.093 138.196 144.793C138.124 145.616 138.254 146.271 138.584 146.756C138.915 147.242 139.534 147.524 140.44 147.603C141.675 147.711 142.701 147.365 143.518 146.565C144.338 145.724 145.2 144.41 146.103 142.622L148.698 142.849C146.778 147.245 144.741 150.137 142.586 151.525C140.476 152.876 138.351 153.457 136.21 153.27ZM152.508 154.696C150.161 154.491 148.276 153.517 146.851 151.774C145.427 150.031 144.865 147.451 145.164 144.033C145.43 140.986 146.306 137.847 147.792 134.617C149.323 131.348 151.383 128.666 153.973 126.569C156.608 124.434 159.593 123.513 162.928 123.805C164.616 123.952 165.847 124.35 166.62 124.999C167.393 125.647 167.738 126.445 167.656 127.392L167.634 127.639L171.903 113.698L181.152 113.263L171.132 145.994C170.913 146.597 170.778 147.187 170.728 147.764C170.584 149.411 171.356 150.308 173.044 150.456C173.785 150.52 174.455 150.455 175.053 150.258C174.708 152.302 173.828 153.823 172.413 154.819C171.043 155.778 169.473 156.18 167.702 156.025C166.055 155.881 164.691 155.347 163.61 154.423C162.574 153.461 161.947 152.099 161.727 150.337C158.958 153.538 155.885 154.991 152.508 154.696ZM157.047 149.056C157.953 149.135 158.893 148.823 159.867 148.12C160.883 147.421 161.678 146.391 162.254 145.031L162.587 144.064L166.851 130.185C166.607 128.711 165.826 127.917 164.508 127.801C162.861 127.657 161.294 128.495 159.807 130.315C158.324 132.094 157.092 134.31 156.113 136.963C155.138 139.574 154.56 141.909 154.38 143.968C154.2 146.027 154.373 147.37 154.899 147.997C155.466 148.627 156.182 148.98 157.047 149.056Z" fill="#F5F5F5"/>
<path d="M34.066 52.53C31.2553 53.522 29.106 55.0927 27.618 57.242C26.1713 59.35 25.448 61.9127 25.448 64.93C25.448 66.2527 25.5927 67.472 25.882 68.588C26.1713 69.6627 26.5847 70.5513 27.122 71.254C24.4767 71.254 22.5133 70.7167 21.232 69.642C19.992 68.526 19.372 66.8313 19.372 64.558C19.372 61.6647 20.2193 58.978 21.914 56.498C23.6087 53.9767 25.9027 51.972 28.796 50.484C31.6893 48.996 34.8307 48.252 38.22 48.252C39.1707 48.252 39.9973 48.314 40.7 48.438C41.4027 48.562 42.2087 48.7893 43.118 49.12L50.558 82.29L57.502 48.624H63.516L53.41 95H44.854L37.662 64.248L30.594 95H24.704L34.066 52.53ZM67.8541 95.372C65.4981 95.372 63.5347 94.566 61.9641 92.954C60.3934 91.342 59.6081 88.8207 59.6081 85.39C59.6081 82.3313 60.2074 79.128 61.4061 75.78C62.6461 72.3907 64.4647 69.5387 66.8621 67.224C69.3007 64.868 72.1941 63.69 75.5421 63.69C77.2367 63.69 78.4974 63.9793 79.3241 64.558C80.1507 65.1367 80.5641 65.9013 80.5641 66.852V67.286L81.2461 64H90.1741L85.7101 85.08C85.5447 85.7 85.4621 86.3613 85.4621 87.064C85.4621 88.8413 86.3094 89.73 88.0041 89.73C89.1614 89.73 90.1534 89.1927 90.9801 88.118C91.8481 87.0433 92.5301 85.638 93.0261 83.902H95.6301C94.1007 88.366 92.1994 91.404 89.9261 93.016C87.6941 94.5867 85.4414 95.372 83.1681 95.372C81.4321 95.372 80.0267 94.8967 78.9521 93.946C77.9187 92.954 77.2987 91.528 77.0921 89.668C75.8934 91.3627 74.5501 92.7473 73.0621 93.822C71.6154 94.8553 69.8794 95.372 67.8541 95.372ZM71.8841 89.358C72.9174 89.358 73.9301 88.8827 74.9221 87.932C75.9554 86.94 76.6581 85.5967 77.0301 83.902L80.0061 69.89C80.0061 69.3527 79.7994 68.836 79.3861 68.34C78.9727 67.8027 78.3321 67.534 77.4641 67.534C75.8107 67.534 74.3227 68.5053 73.0001 70.448C71.6774 72.3493 70.6441 74.664 69.9001 77.392C69.1561 80.0787 68.7841 82.4553 68.7841 84.522C68.7841 86.5887 69.0734 87.9113 69.6521 88.49C70.2721 89.0687 71.0161 89.358 71.8841 89.358ZM99.1868 95.372C97.2028 95.372 95.5908 94.752 94.3508 93.512C93.1522 92.272 92.5528 90.412 92.5528 87.932C92.5528 86.8987 92.7182 85.5553 93.0488 83.902L96.7688 66.48H94.7228L95.2188 64H97.2648L99.1248 55.444L108.301 54.204L106.193 64H109.913L109.417 66.48H105.697L101.729 85.08C101.563 85.7 101.481 86.3613 101.481 87.064C101.481 87.8907 101.667 88.49 102.039 88.862C102.452 89.1927 103.113 89.358 104.023 89.358C105.221 89.358 106.337 88.862 107.371 87.87C108.404 86.8367 109.148 85.514 109.603 83.902H112.207C110.677 88.366 108.714 91.404 106.317 93.016C103.919 94.5867 101.543 95.372 99.1868 95.372ZM119.932 60.652C118.568 60.652 117.411 60.1767 116.46 59.226C115.509 58.2753 115.034 57.118 115.034 55.754C115.034 54.39 115.509 53.2327 116.46 52.282C117.411 51.29 118.568 50.794 119.932 50.794C121.296 50.794 122.453 51.29 123.404 52.282C124.396 53.2327 124.892 54.39 124.892 55.754C124.892 57.118 124.396 58.2753 123.404 59.226C122.453 60.1767 121.296 60.652 119.932 60.652ZM115.716 95.372C113.732 95.372 112.12 94.752 110.88 93.512C109.681 92.272 109.082 90.412 109.082 87.932C109.082 86.8987 109.247 85.5553 109.578 83.902L113.794 64H122.722L118.258 85.08C118.093 85.7 118.01 86.3613 118.01 87.064C118.01 87.8907 118.196 88.49 118.568 88.862C118.981 89.1927 119.643 89.358 120.552 89.358C121.751 89.358 122.867 88.862 123.9 87.87C124.933 86.8367 125.677 85.514 126.132 83.902H128.736C127.207 88.366 125.243 91.404 122.846 93.016C120.449 94.5867 118.072 95.372 115.716 95.372ZM135.159 95.248C132.101 95.248 129.683 94.4627 127.905 92.892C126.128 91.3213 125.239 88.8413 125.239 85.452C125.239 82.6413 125.818 79.5207 126.975 76.09C128.133 72.6593 129.993 69.704 132.555 67.224C135.118 64.7027 138.342 63.442 142.227 63.442C147.518 63.442 150.163 66.7487 150.163 73.362V73.424C150.287 73.4653 150.515 73.486 150.845 73.486C152.209 73.486 153.78 73.1347 155.557 72.432C157.335 71.688 158.947 70.7993 160.393 69.766L160.951 71.44C159.753 72.7213 158.182 73.8167 156.239 74.726C154.338 75.594 152.251 76.214 149.977 76.586C149.647 80.3473 148.799 83.6333 147.435 86.444C146.071 89.2547 144.315 91.4247 142.165 92.954C140.016 94.4833 137.681 95.248 135.159 95.248ZM137.639 89.668C138.631 89.668 139.623 89.11 140.615 87.994C141.607 86.8367 142.475 85.2867 143.219 83.344C143.963 81.36 144.501 79.1693 144.831 76.772C143.715 76.524 143.157 75.656 143.157 74.168C143.157 72.4733 143.798 71.3573 145.079 70.82C144.997 69.456 144.79 68.526 144.459 68.03C144.129 67.4927 143.55 67.224 142.723 67.224C141.359 67.224 140.037 68.216 138.755 70.2C137.474 72.184 136.441 74.5607 135.655 77.33C134.87 80.0993 134.477 82.538 134.477 84.646C134.477 86.63 134.705 87.9733 135.159 88.676C135.614 89.3373 136.441 89.668 137.639 89.668ZM174.682 95.372C172.491 95.372 170.9 94.7107 169.908 93.388C168.916 92.0653 168.42 90.3913 168.42 88.366C168.42 87.498 168.523 86.5267 168.73 85.452C168.936 84.336 169.143 83.2613 169.35 82.228C169.598 81.1947 169.763 80.5333 169.846 80.244C170.176 78.7973 170.486 77.3713 170.776 75.966C171.065 74.5607 171.21 73.424 171.21 72.556C171.21 70.448 170.466 69.394 168.978 69.394C167.903 69.394 166.952 69.9313 166.126 71.006C165.299 72.0393 164.638 73.4033 164.142 75.098L159.926 95H150.998L157.57 64H166.498L165.816 67.224C167.882 64.9093 170.3 63.752 173.07 63.752C175.178 63.752 176.852 64.3307 178.092 65.488C179.332 66.6453 179.952 68.402 179.952 70.758C179.952 71.9567 179.807 73.3 179.518 74.788C179.228 76.2347 178.815 78.012 178.278 80.12C177.947 81.4013 177.637 82.662 177.348 83.902C177.1 85.1007 176.976 86.0513 176.976 86.754C176.976 87.5807 177.162 88.2213 177.534 88.676C177.906 89.1307 178.546 89.358 179.456 89.358C180.448 89.358 181.13 89.234 181.502 88.986C181.254 91.094 180.489 92.6853 179.208 93.76C177.968 94.8347 176.459 95.372 174.682 95.372Z" fill="#F5F5F5"/>
</svg>
