<?xml version="1.0" encoding="utf-8"?>
<!-- Generator: $$$/GeneralStr/196=Adobe Illustrator 27.6.0, SVG Export Plug-In . SVG Version: 6.00 Build 0)  -->
<svg version="1.1" id="Calque_1" xmlns="http://www.w3.org/2000/svg" xmlns:xlink="http://www.w3.org/1999/xlink" x="0px" y="0px"
	 viewBox="0 0 2620 500" style="enable-background:new 0 0 2620 500;" xml:space="preserve">
<style type="text/css">
	.st0{fill:#FFFFFF;}
	.st1{fill-rule:evenodd;clip-rule:evenodd;fill:#40AB5D;}
	.st2{fill-rule:evenodd;clip-rule:evenodd;fill:url(#SVGID_1_);}
	.st3{fill-rule:evenodd;clip-rule:evenodd;fill:url(#SVGID_00000090258941044396395510000017494303454366624415_);}
	.st4{fill-rule:evenodd;clip-rule:evenodd;fill:url(#SVGID_00000111154375981028361460000004802075196362984326_);}
	.st5{fill-rule:evenodd;clip-rule:evenodd;fill:url(#SVGID_00000060029349950367171810000006080561005471609260_);}
	.st6{fill-rule:evenodd;clip-rule:evenodd;fill:url(#SVGID_00000133522692221135015830000013309512887185346706_);}
	.st7{fill-rule:evenodd;clip-rule:evenodd;fill:url(#SVGID_00000161597784309605781570000014953723748827409575_);}
	.st8{fill-rule:evenodd;clip-rule:evenodd;fill:url(#SVGID_00000051381811475084749220000004863126478171721380_);}
	.st9{fill-rule:evenodd;clip-rule:evenodd;fill:url(#SVGID_00000072991377204980764940000007188772549761166501_);}
	.st10{fill-rule:evenodd;clip-rule:evenodd;fill:url(#SVGID_00000115485173001428889760000007065852374207569043_);}
</style>
<path class="st0" d="M612.2,331.6c0,104.9,64.6,167.6,160.6,167.6c47.9,0,88.1-13.3,110.6-48.4v48.4H971V-0.3h-91v212.3
	c-20.7-35-58.8-50.7-106.7-50.7C679.7,161.1,612.2,225.2,612.2,331.6z M882.8,331.6c0,59.9-40.8,97.3-89.7,97.3
	c-50.7,0-89.7-37.4-89.7-97.3c0-60.9,39.2-99.1,89.7-99.1C842.1,232.5,882.8,271.2,882.8,331.6z M1254.2,370.3
	c-10.5,38.7-36.9,58.1-78.5,58.1c-48.4,0-88.1-29.3-89.2-81.1h229.3c2.9-12.8,4.2-26.4,4.2-41.3c0-92.8-63.3-145.1-156.6-145.1
	c-99.6,0-168.1,70.9-168.1,167.1c0,107.2,75.6,171.5,180.2,171.5c79,0,132.6-32.9,156.1-98.6L1254.2,370.3z M1086.6,286.6
	c8.6-37.4,39.7-59.4,77.1-59.4c40.8,0,68.5,22,68.5,56.5l-0.5,2.9H1086.6z M1591.8,370.3c-10.5,38.7-36.9,58.1-78.5,58.1
	c-48.4,0-88.1-29.3-89.2-81.1h229.3c2.9-12.8,4.2-26.4,4.2-41.3c0-92.8-63.3-145.1-156.6-145.1c-99.6,0-168.1,70.9-168.1,167.1
	c0,107.2,75.6,171.5,180.2,171.5c79,0,132.6-32.9,156.1-98.6L1591.8,370.3z M1424.2,286.6c8.6-37.4,39.7-59.4,77.1-59.4
	c40.8,0,68.5,22,68.5,56.5l-0.5,2.9H1424.2z M1978.8,499.7v-82.4h-191.2l185.9-181v-75.3h-294.2v78.5H1859l-185.4,181.7v78.5H1978.8
	z M2244.8,370.3c-10.5,38.7-36.9,58.1-78.5,58.1c-48.4,0-88.1-29.3-89.2-81.1h229.3c2.9-12.8,4.2-26.4,4.2-41.3
	c0-92.8-63.3-145.1-156.6-145.1c-99.6,0-168.1,70.9-168.1,167.1c0,107.2,75.6,171.5,180.2,171.5c79,0,132.6-32.9,156.1-98.6
	L2244.8,370.3z M2077.1,286.6c8.6-37.4,39.7-59.4,77.1-59.4c40.8,0,68.5,22,68.5,56.5l-0.5,2.9H2077.1z"/>
<g>
	<path class="st1" d="M406.6,161.1h112.2v65.6H406.6V161.1z"/>
	
		<linearGradient id="SVGID_1_" gradientUnits="userSpaceOnUse" x1="166.2963" y1="615.2974" x2="166.0652" y2="600.6301" gradientTransform="matrix(4.5795 0 0 4.5795 -298.2925 -2499.458)">
		<stop  offset="0" style="stop-color:#358C7B"/>
		<stop  offset="0.526" style="stop-color:#33A65E"/>
	</linearGradient>
	<path class="st2" d="M406.6,252.1h112.2v65.6H406.6V252.1z"/>
	
		<linearGradient id="SVGID_00000100343510943375331640000011832134120936177577_" gradientUnits="userSpaceOnUse" x1="153.5583" y1="634.311" x2="178.8046" y2="621.4476" gradientTransform="matrix(4.5795 0 0 4.5795 -298.2925 -2499.458)">
		<stop  offset="0" style="stop-color:#222B90"/>
		<stop  offset="1" style="stop-color:#367B99"/>
	</linearGradient>
	<path style="fill-rule:evenodd;clip-rule:evenodd;fill:url(#SVGID_00000100343510943375331640000011832134120936177577_);" d="
		M406.6,343.1h112.2v65.6H406.6V343.1z"/>
	
		<linearGradient id="SVGID_00000070822211356506311530000011171612698979488901_" gradientUnits="userSpaceOnUse" x1="65.1365" y1="647.7514" x2="89.634" y2="647.7514" gradientTransform="matrix(4.5795 0 0 4.5795 -298.2925 -2499.458)">
		<stop  offset="0" style="stop-color:#FF9900"/>
		<stop  offset="1" style="stop-color:#FF8000"/>
	</linearGradient>
	<path style="fill-rule:evenodd;clip-rule:evenodd;fill:url(#SVGID_00000070822211356506311530000011171612698979488901_);" d="
		M0,434.1h112.2v65.6H0V434.1z"/>
	
		<linearGradient id="SVGID_00000065790329156819031080000000982541856838063233_" gradientUnits="userSpaceOnUse" x1="94.7431" y1="647.7514" x2="119.2406" y2="647.7514" gradientTransform="matrix(4.5795 0 0 4.5795 -298.2925 -2499.458)">
		<stop  offset="0" style="stop-color:#FF8000"/>
		<stop  offset="1" style="stop-color:#CC1953"/>
	</linearGradient>
	<path style="fill-rule:evenodd;clip-rule:evenodd;fill:url(#SVGID_00000065790329156819031080000000982541856838063233_);" d="
		M135.5,434.1h112.2v65.6H135.5L135.5,434.1z"/>
	
		<linearGradient id="SVGID_00000128471583144903767160000009074722730872660114_" gradientUnits="userSpaceOnUse" x1="124.353" y1="647.7514" x2="148.8505" y2="647.7514" gradientTransform="matrix(4.5795 0 0 4.5795 -298.2925 -2499.458)">
		<stop  offset="0" style="stop-color:#CC1953"/>
		<stop  offset="1" style="stop-color:#241284"/>
	</linearGradient>
	<path style="fill-rule:evenodd;clip-rule:evenodd;fill:url(#SVGID_00000128471583144903767160000009074722730872660114_);" d="
		M271.2,434.1h112.2v65.6H271.2L271.2,434.1z"/>
	
		<linearGradient id="SVGID_00000003792800689115648610000016825931950674788276_" gradientUnits="userSpaceOnUse" x1="153.9327" y1="647.7514" x2="178.4302" y2="647.7514" gradientTransform="matrix(4.5795 0 0 4.5795 -298.2925 -2499.458)">
		<stop  offset="0" style="stop-color:#222B90"/>
		<stop  offset="1" style="stop-color:#3559A6"/>
	</linearGradient>
	<path style="fill-rule:evenodd;clip-rule:evenodd;fill:url(#SVGID_00000003792800689115648610000016825931950674788276_);" d="
		M406.6,434.1h112.2v65.6H406.6V434.1z"/>
	
		<linearGradient id="SVGID_00000098185715993555464440000011309714825632339622_" gradientUnits="userSpaceOnUse" x1="123.3873" y1="631.7435" x2="149.8161" y2="624.0151" gradientTransform="matrix(4.5795 0 0 4.5795 -298.2925 -2499.458)">
		<stop  offset="0" style="stop-color:#CC1953"/>
		<stop  offset="1" style="stop-color:#241284"/>
	</linearGradient>
	<path style="fill-rule:evenodd;clip-rule:evenodd;fill:url(#SVGID_00000098185715993555464440000011309714825632339622_);" d="
		M271.2,343.1h112.2v65.6H271.2L271.2,343.1z"/>
	
		<linearGradient id="SVGID_00000071531886042734058180000007666880725295046809_" gradientUnits="userSpaceOnUse" x1="93.8457" y1="623.1044" x2="120.0841" y2="632.6542" gradientTransform="matrix(4.5795 0 0 4.5795 -298.2925 -2499.458)">
		<stop  offset="3.000000e-03" style="stop-color:#FFCC00"/>
		<stop  offset="1" style="stop-color:#CE1938"/>
	</linearGradient>
	<path style="fill-rule:evenodd;clip-rule:evenodd;fill:url(#SVGID_00000071531886042734058180000007666880725295046809_);" d="
		M135.5,343.1h112.2v65.6H135.5L135.5,343.1z"/>
	
		<linearGradient id="SVGID_00000177462472501400957040000005812999946368765078_" gradientUnits="userSpaceOnUse" x1="96.7778" y1="598.6066" x2="117.1521" y2="617.4078" gradientTransform="matrix(4.5795 0 0 4.5795 -298.2925 -2499.458)">
		<stop  offset="3.000000e-03" style="stop-color:#FFD100"/>
		<stop  offset="1" style="stop-color:#FD5A22"/>
	</linearGradient>
	<path style="fill-rule:evenodd;clip-rule:evenodd;fill:url(#SVGID_00000177462472501400957040000005812999946368765078_);" d="
		M135.5,252.1h112.2v65.6H135.5L135.5,252.1z"/>
</g>
<path class="st0" d="M2526.4,278v9.7h88.7v-25.9c0-58.1-36.3-100.2-97.3-100.2c-39.2,0-66.9,19.1-81.3,50.7v-50.7h-91.5v338.1h91.5
	V281.9c0-34.5,18.6-53.6,47.1-53.6C2509.7,228.6,2526.4,253.1,2526.4,278L2526.4,278z"/>
</svg>
